<?xml version="1.0" encoding="iso-8859-1"?>
<!-- Generator: Adobe Illustrator 18.0.0, SVG Export Plug-In . SVG Version: 6.00 Build 0)  -->
<!DOCTYPE svg PUBLIC "-//W3C//DTD SVG 1.1//EN" "http://www.w3.org/Graphics/SVG/1.1/DTD/svg11.dtd">
<svg version="1.1" id="Capa_1" xmlns="http://www.w3.org/2000/svg" xmlns:xlink="http://www.w3.org/1999/xlink" x="0px" y="0px"
	 viewBox="0 0 91.824 91.824" style="enable-background:new 0 0 91.824 91.824;" xml:space="preserve">
<g>
	<path style="fill-rule:evenodd;clip-rule:evenodd;fill:#FF93A7;" d="M45.912,91.823c25.287,0,45.911-20.624,45.911-45.911
		S71.199,0,45.912,0C20.625,0,0.001,20.625,0.001,45.912S20.625,91.823,45.912,91.823z"/>
	<g>
		<path style="fill-rule:evenodd;clip-rule:evenodd;fill:#8599B4;" d="M59.313,85.799l1.066,3.695
			c5.428-1.801,10.407-4.585,14.724-8.145l-0.028-0.098C72.222,71.367,56.609,76.426,59.313,85.799z"/>
		<path style="fill-rule:evenodd;clip-rule:evenodd;fill:#8599B4;" d="M59.313,85.8l1.066,3.694
			c5.428-1.801,10.406-4.585,14.724-8.145l-0.028-0.098C72.223,71.366,56.609,76.426,59.313,85.8z"/>
		<path style="fill-rule:evenodd;clip-rule:evenodd;fill:#8599B4;" d="M32.408,85.799l-1.058,3.666
			c-5.426-1.813-10.4-4.611-14.712-8.184l0.009-0.029C19.5,71.367,35.113,76.426,32.408,85.799z"/>
		<path style="fill-rule:evenodd;clip-rule:evenodd;fill:#425156;" d="M67.971,75.877H23.894v10.33
			c6.537,3.58,14.04,5.617,22.018,5.617c7.995,0,15.512-2.046,22.059-5.639V75.877z"/>
		<path style="fill-rule:evenodd;clip-rule:evenodd;fill:#8599B4;" d="M33.683,75.877h24.499v1.538
			c0,6.737-5.513,12.251-12.249,12.251l0,0c-6.738,0-12.25-5.514-12.25-12.251V75.877z"/>
		<path style="fill-rule:evenodd;clip-rule:evenodd;fill:#DDA87E;" d="M45.933,43.117L45.933,43.117
			c-5.475,0-9.954,4.479-9.954,9.953v22.807c0,5.475,4.479,9.953,9.954,9.953l0,0c5.474,0,9.952-4.479,9.952-9.953V53.07
			C55.885,47.596,51.406,43.117,45.933,43.117z"/>
		<g>
			<circle style="fill-rule:evenodd;clip-rule:evenodd;fill:#4D1B02;" cx="60.446" cy="21.59" r="7.828"/>
			<circle style="fill-rule:evenodd;clip-rule:evenodd;fill:#4D1B02;" cx="52.753" cy="18.149" r="7.828"/>
			<circle style="fill-rule:evenodd;clip-rule:evenodd;fill:#4D1B02;" cx="41.012" cy="16.934" r="7.828"/>
			<circle style="fill-rule:evenodd;clip-rule:evenodd;fill:#4D1B02;" cx="30.483" cy="20.781" r="7.828"/>
			<circle style="fill-rule:evenodd;clip-rule:evenodd;fill:#4D1B02;" cx="24.41" cy="29.486" r="7.828"/>
			<circle style="fill-rule:evenodd;clip-rule:evenodd;fill:#4D1B02;" cx="67.127" cy="29.688" r="7.828"/>
			<circle style="fill-rule:evenodd;clip-rule:evenodd;fill:#4D1B02;" cx="67.532" cy="40.621" r="7.828"/>
			<circle style="fill-rule:evenodd;clip-rule:evenodd;fill:#4D1B02;" cx="61.863" cy="53.781" r="7.828"/>
			<circle style="fill-rule:evenodd;clip-rule:evenodd;fill:#4D1B02;" cx="23.803" cy="39.406" r="7.828"/>
			<circle style="fill-rule:evenodd;clip-rule:evenodd;fill:#4D1B02;" cx="29.472" cy="54.793" r="7.828"/>
			<circle style="fill-rule:evenodd;clip-rule:evenodd;fill:#4D1B02;" cx="66.408" cy="48.1" r="7.828"/>
			<circle style="fill-rule:evenodd;clip-rule:evenodd;fill:#4D1B02;" cx="24.938" cy="47.549" r="7.828"/>
		</g>
		<path style="fill-rule:evenodd;clip-rule:evenodd;fill:#B78053;" d="M55.751,58.234v15.01c-3.716,2.708-7.298,4.225-9.818,4.225
			c-2.522,0-6.104-1.517-9.82-4.225v-15.01C36.112,46.131,55.751,46.131,55.751,58.234z"/>
		<path style="fill-rule:evenodd;clip-rule:evenodd;fill:#E5A775;" d="M45.933,17.989c-32.957,0-21.105,39.821-18.953,42.991
			c2.374,3.496,13.628,12.762,18.953,12.762c5.324,0,16.577-9.266,18.95-12.762C67.036,57.81,78.888,17.989,45.933,17.989z"/>
		
			<ellipse transform="matrix(-0.3128 -0.9498 0.9498 -0.3128 -17.0036 86.0322)" style="fill-rule:evenodd;clip-rule:evenodd;fill:#E5A775;" cx="22.622" cy="49.167" rx="5.702" ry="3.297"/>
		
			<ellipse transform="matrix(0.3128 -0.9498 0.9498 0.3128 1.1443 99.9165)" style="fill-rule:evenodd;clip-rule:evenodd;fill:#E5A775;" cx="69.619" cy="49.167" rx="5.702" ry="3.297"/>
		<g>
			<circle style="fill-rule:evenodd;clip-rule:evenodd;fill:#4D1B02;" cx="43.238" cy="23.615" r="7.828"/>
			<circle style="fill-rule:evenodd;clip-rule:evenodd;fill:#4D1B02;" cx="53.968" cy="23.21" r="7.828"/>
			<circle style="fill-rule:evenodd;clip-rule:evenodd;fill:#4D1B02;" cx="35.343" cy="26.045" r="7.828"/>
			<circle style="fill-rule:evenodd;clip-rule:evenodd;fill:#4D1B02;" cx="29.518" cy="29.937" r="6.659"/>
			<circle style="fill-rule:evenodd;clip-rule:evenodd;fill:#4D1B02;" cx="60.243" cy="28.069" r="7.828"/>
			<circle style="fill-rule:evenodd;clip-rule:evenodd;fill:#4D1B02;" cx="66.6" cy="35.683" r="5.522"/>
			<circle style="fill-rule:evenodd;clip-rule:evenodd;fill:#4D1B02;" cx="25.975" cy="36.921" r="5.343"/>
			<circle style="fill-rule:evenodd;clip-rule:evenodd;fill:#4D1B02;" cx="24.861" cy="42.489" r="3.419"/>
			<circle style="fill-rule:evenodd;clip-rule:evenodd;fill:#4D1B02;" cx="67.578" cy="42.894" r="3.419"/>
			<circle style="fill-rule:evenodd;clip-rule:evenodd;fill:#4D1B02;" cx="25.266" cy="46.538" r="2.408"/>
			<circle style="fill-rule:evenodd;clip-rule:evenodd;fill:#4D1B02;" cx="67.173" cy="46.335" r="2.407"/>
		</g>
		<path style="fill-rule:evenodd;clip-rule:evenodd;fill:#FFFFFF;" d="M35.365,57.496c2.765,2.169,18.369,2.049,21.133,0
			C54.097,68.908,38.551,69.259,35.365,57.496z"/>
		<path style="opacity:0.2;fill-rule:evenodd;clip-rule:evenodd;" d="M67.674,75.877H58.16h-2.296v-6.754
			c3.996-2.831,7.699-6.256,8.974-8.109c2.394-0.992,4.187-3.137,4.69-5.742c2.759-1.211,4.688-3.966,4.688-7.172
			c0-0.957-0.173-1.875-0.487-2.723c1.01-1.318,1.611-2.967,1.611-4.756c0-2.234-0.935-4.248-2.435-5.674
			c1.261-1.39,2.029-3.234,2.029-5.259c0-3.936-2.905-7.192-6.689-7.745c0.005-0.117,0.009-0.234,0.009-0.354
			c0-4.322-3.505-7.827-7.828-7.827c-0.392,0-0.776,0.029-1.152,0.085c-1.4-2.124-3.807-3.526-6.54-3.526
			c-2.066,0-3.943,0.8-5.342,2.106c-0.418-0.593-0.916-1.125-1.479-1.58v80.976c11.079,0,21.242-3.926,29.174-10.46l-0.032-0.112
			c-0.044-0.152-0.091-0.301-0.142-0.445l-0.004-0.015c-0.101-0.29-0.212-0.565-0.335-0.827l-0.005-0.012
			c-0.061-0.129-0.124-0.256-0.19-0.379l-0.006-0.012c-0.065-0.12-0.133-0.238-0.203-0.353l-0.007-0.012
			c-0.069-0.114-0.142-0.226-0.216-0.333l-0.016-0.021c-0.072-0.104-0.146-0.205-0.224-0.304l-0.012-0.016
			c-0.077-0.099-0.157-0.194-0.237-0.286l-0.028-0.031c-0.077-0.088-0.157-0.173-0.237-0.255l-0.019-0.021
			c-0.084-0.084-0.169-0.166-0.257-0.244l-0.034-0.031c-0.086-0.076-0.172-0.149-0.259-0.221l-0.032-0.024
			c-0.086-0.069-0.174-0.136-0.263-0.199l-0.039-0.027c-0.092-0.065-0.185-0.127-0.28-0.187l-0.039-0.025
			c-0.089-0.055-0.179-0.108-0.27-0.16l-0.047-0.025c-0.095-0.051-0.189-0.102-0.286-0.148l-0.062-0.029
			c-0.084-0.041-0.17-0.08-0.257-0.117l-0.071-0.031c-0.094-0.038-0.188-0.074-0.281-0.109l-0.08-0.028
			c-0.086-0.031-0.173-0.061-0.261-0.087l-0.083-0.026c-0.093-0.028-0.186-0.054-0.28-0.078l-0.094-0.024
			c-0.083-0.02-0.166-0.039-0.249-0.056l-0.119-0.024c-0.084-0.017-0.17-0.031-0.256-0.046l-0.104-0.017
			c-0.085-0.012-0.169-0.023-0.254-0.033l-0.13-0.014c-0.087-0.01-0.175-0.017-0.262-0.023l-0.096-0.006
			c-0.091-0.006-0.181-0.01-0.271-0.012l-0.121-0.002c-0.085-0.002-0.17-0.002-0.255,0L67.674,75.877L67.674,75.877z"/>
	</g>
</g>
<g>
</g>
<g>
</g>
<g>
</g>
<g>
</g>
<g>
</g>
<g>
</g>
<g>
</g>
<g>
</g>
<g>
</g>
<g>
</g>
<g>
</g>
<g>
</g>
<g>
</g>
<g>
</g>
<g>
</g>
</svg>
